<svg id="game-over" xmlns="http://www.w3.org/2000/svg" width="512" height="508" viewBox="0 0 512 508">
  <path id="Path_1" data-name="Path 1" d="M392,508H120A120,120,0,0,1,0,388H512A120,120,0,0,1,392,508Zm0,0" fill="#4d61fc"/>
  <path id="Path_2" data-name="Path 2" d="M416,392H96a4,4,0,0,1-4-4V372a24.031,24.031,0,0,1,24-24H396a24.031,24.031,0,0,1,24,24v16A4,4,0,0,1,416,392Zm-316-8H412V372a16.016,16.016,0,0,0-16-16H116a16.016,16.016,0,0,0-16,16Zm0,0" fill="#263238"/>
  <path id="Path_3" data-name="Path 3" d="M376,356H136a4,4,0,0,1-4-4V107.313a12.107,12.107,0,0,1,3.512-8.488l43.313-43.312A12.121,12.121,0,0,1,187.313,52H324.688a12.107,12.107,0,0,1,8.488,3.512l43.313,43.313A12.093,12.093,0,0,1,380,107.313V352A4,4,0,0,1,376,356Zm-236-8H372V107.313a4.069,4.069,0,0,0-1.168-2.832L327.52,61.168A4.069,4.069,0,0,0,324.688,60H187.313a4.069,4.069,0,0,0-2.832,1.168L141.168,104.48A4.036,4.036,0,0,0,140,107.313Zm0,0" fill="#263238"/>
  <path id="Path_4" data-name="Path 4" d="M328,172a72,72,0,1,1-72-72A72,72,0,0,1,328,172Zm0,0" fill="#ffd740"/>
  <g id="Group_1" data-name="Group 1">
    <path id="Path_5" data-name="Path 5" d="M256,248a76,76,0,1,1,76-76A76.091,76.091,0,0,1,256,248Zm0-144a68,68,0,1,0,68,68A68.076,68.076,0,0,0,256,104Zm0,0" fill="#263238"/>
    <path id="Path_6" data-name="Path 6" d="M272,176a4,4,0,0,1-2.832-6.824l24-24a4,4,0,0,1,5.656,5.656l-24,24A3.984,3.984,0,0,1,272,176Zm0,0" fill="#263238"/>
    <path id="Path_7" data-name="Path 7" d="M296,176a4.015,4.015,0,0,1-2.832-1.168l-24-24a4,4,0,0,1,5.656-5.656l24,24A4,4,0,0,1,296,176Zm0,0" fill="#263238"/>
    <path id="Path_8" data-name="Path 8" d="M216,176a4,4,0,0,1-2.832-6.824l24-24a4,4,0,0,1,5.656,5.656l-24,24A3.984,3.984,0,0,1,216,176Zm0,0" fill="#263238"/>
    <path id="Path_9" data-name="Path 9" d="M240,176a4.015,4.015,0,0,1-2.832-1.168l-24-24a4,4,0,0,1,5.656-5.656l24,24A4,4,0,0,1,240,176Zm0,0" fill="#263238"/>
    <path id="Path_10" data-name="Path 10" d="M288,204H224a4,4,0,0,1,0-8h64a4,4,0,0,1,0,8Zm0,0" fill="#263238"/>
    <path id="Path_11" data-name="Path 11" d="M296,336H216a4,4,0,0,1,0-8h80a4,4,0,0,1,0,8Zm0,0" fill="#263238"/>
    <path id="Path_12" data-name="Path 12" d="M476,244H404a4,4,0,0,1,0-8h72a4,4,0,0,1,0,8Zm0,0" fill="#263238"/>
    <path id="Path_13" data-name="Path 13" d="M508,244H492a4,4,0,0,1,0-8h16a4,4,0,0,1,0,8Zm0,0" fill="#263238"/>
    <path id="Path_14" data-name="Path 14" d="M108,244H36a4,4,0,0,1,0-8h72a4,4,0,0,1,0,8Zm0,0" fill="#263238"/>
    <path id="Path_15" data-name="Path 15" d="M20,244H4a4,4,0,0,1,0-8H20a4,4,0,0,1,0,8Zm0,0" fill="#263238"/>
    <path id="Path_16" data-name="Path 16" d="M312.008,312h-112a4,4,0,0,1-4-4V276a4,4,0,0,1,4-4h112a4,4,0,0,1,4,4v32A4,4,0,0,1,312.008,312Zm-108-8h104V280h-104Zm0,0" fill="#263238"/>
    <path id="Path_17" data-name="Path 17" d="M168,24H136a4,4,0,0,1,0-8h32a4,4,0,0,1,0,8Zm0,0" fill="#263238"/>
    <path id="Path_18" data-name="Path 18" d="M152,40a4,4,0,0,1-4-4V4a4,4,0,0,1,8,0V36A4,4,0,0,1,152,40Zm0,0" fill="#263238"/>
    <path id="Path_19" data-name="Path 19" d="M120,72H88a4,4,0,0,1,0-8h32a4,4,0,0,1,0,8Zm0,0" fill="#263238"/>
    <path id="Path_20" data-name="Path 20" d="M104,88a4,4,0,0,1-4-4V52a4,4,0,0,1,8,0V84A4,4,0,0,1,104,88Zm0,0" fill="#263238"/>
  </g>
</svg>
