<svg xmlns="http://www.w3.org/2000/svg" width="225.762" height="211.495" viewBox="0 0 225.762 211.495">
  <g id="investment" transform="translate(-15.021 -29.404)">
    <g id="Group_15" data-name="Group 15">
      <g id="Group_14" data-name="Group 14">
        <path id="Path_27" data-name="Path 27" d="M232.365,78.58a10.536,10.536,0,0,0-13.5,6.214A105.067,105.067,0,0,0,193.109,54.08c-1.872-1.513-3.8-2.938-5.771-4.312L174.27,41.974a104.457,104.457,0,0,0-148.6,70.148A10.54,10.54,0,0,0,46.221,116.8,83.429,83.429,0,0,1,201.568,96.926l-4.906-1.8a10.54,10.54,0,1,0-7.254,19.792l26.125,9.577a10.539,10.539,0,0,0,13.522-6.268L238.632,92.1A10.538,10.538,0,0,0,232.365,78.58Z" fill="#18f7c0"/>
      </g>
    </g>
    <g id="Group_17" data-name="Group 17">
      <g id="Group_16" data-name="Group 16">
        <path id="Path_28" data-name="Path 28" d="M239.66,83.413a12.037,12.037,0,0,0-20.852-1.741,105.782,105.782,0,0,0-24.757-28.758c-1.746-1.412-3.661-2.842-5.854-4.375A1.5,1.5,0,0,0,186.478,51c2.135,1.492,3.995,2.882,5.687,4.249a102.974,102.974,0,0,1,25.388,30.275,1.5,1.5,0,0,0,2.717-.2,9.038,9.038,0,0,1,16.954,6.269l-9.577,26.125a9.04,9.04,0,0,1-11.6,5.376l-26.125-9.577a9.03,9.03,0,0,1-5.377-11.6,9.041,9.041,0,0,1,11.6-5.376l4.906,1.8A1.5,1.5,0,0,0,202.9,96.24,84.93,84.93,0,0,0,44.758,116.466a9.039,9.039,0,1,1-17.628-4.011A102.927,102.927,0,0,1,173.6,43.315a1.5,1.5,0,1,0,1.342-2.684A105.959,105.959,0,0,0,24.2,111.79a12.141,12.141,0,0,0-.3,2.68,12.041,12.041,0,0,0,23.782,2.661A81.944,81.944,0,0,1,198.344,94.147l-1.167-.428a12.044,12.044,0,0,0-16.185,11.3,12.084,12.084,0,0,0,7.9,11.305l26.125,9.577a12.039,12.039,0,0,0,15.447-7.161l9.577-26.123A11.944,11.944,0,0,0,239.66,83.413Z" fill="#3a312a"/>
      </g>
    </g>
    <g id="Group_19" data-name="Group 19">
      <g id="Group_18" data-name="Group 18">
        <path id="Path_29" data-name="Path 29" d="M222.2,145.567a10.54,10.54,0,0,0-12.616,7.939A83.61,83.61,0,0,1,92.113,210.175L79.061,202.38a82.662,82.662,0,0,1-24.828-29l4.9,1.8a10.54,10.54,0,0,0,7.256-19.791l-26.125-9.577a10.54,10.54,0,0,0-13.523,6.269L17.168,178.2a10.538,10.538,0,0,0,19.768,7.31,104.439,104.439,0,0,0,193.2-27.328A10.54,10.54,0,0,0,222.2,145.567Z" fill="#18f7c0"/>
      </g>
    </g>
    <g id="Group_21" data-name="Group 21">
      <g id="Group_20" data-name="Group 20">
        <path id="Path_30" data-name="Path 30" d="M230.046,149.431a12.041,12.041,0,0,0-21.931,3.742A82.109,82.109,0,0,1,92.76,208.822a1.5,1.5,0,1,0-1.293,2.706,85.108,85.108,0,0,0,119.574-57.689,9.039,9.039,0,1,1,17.628,4.01A102.906,102.906,0,0,1,38.246,184.783a1.5,1.5,0,0,0-2.717.2,9.039,9.039,0,0,1-16.955-6.27l9.578-26.125a9.041,9.041,0,0,1,11.6-5.375l26.125,9.577a9.04,9.04,0,0,1-6.224,16.976l-4.9-1.8a1.5,1.5,0,0,0-1.851,2.094,84.628,84.628,0,0,0,25.278,29.526,1.5,1.5,0,1,0,1.768-2.424,81.677,81.677,0,0,1-22.484-25.007l1.16.425a12.04,12.04,0,1,0,8.29-22.608L40.784,144.4a12.039,12.039,0,0,0-15.447,7.16l-9.578,26.125a12.038,12.038,0,0,0,21.234,10.948,105.938,105.938,0,0,0,194.6-30.119A11.961,11.961,0,0,0,230.046,149.431Z" fill="#3a312a"/>
      </g>
    </g>
    <ellipse id="Ellipse_3" data-name="Ellipse 3" cx="51.194" cy="51.194" rx="51.194" ry="51.194" transform="matrix(0.163, -0.987, 0.987, 0.163, 68.627, 178.296)" fill="#fcc24c"/>
    <path id="Path_58" data-name="Path 58" d="M170.322,165.412q2.1.247,4.245.33a51.178,51.178,0,0,0,0-102.315q-2.145.079-4.245.329a51.184,51.184,0,0,1,0,101.656Z" transform="translate(-45.609 21.606)" fill="#dea42e"/>
    <path id="Path_59" data-name="Path 59" d="M151.05,63.756q-2.1-.247-4.245-.33a51.178,51.178,0,0,0,0,102.315q2.145-.08,4.245-.329a51.184,51.184,0,0,1,0-101.656Z" transform="translate(-20.768 21.607)" fill="#fce06a"/>
    <g id="Group_33" data-name="Group 33" transform="translate(74.981 83.675)">
      <path id="Path_53" data-name="Path 53" d="M147.587,166.4A52.516,52.516,0,1,1,200.1,113.887,52.576,52.576,0,0,1,147.587,166.4Zm0-102.389a49.873,49.873,0,1,0,49.873,49.873,49.929,49.929,0,0,0-49.873-49.873Z" transform="translate(-95.071 -61.371)" fill="#3a312a"/>
      <path id="Path_54" data-name="Path 54" d="M112.863,109.366a1.323,1.323,0,0,1-1.229-1.807,64.4,64.4,0,0,1,3.861-8.1,1.322,1.322,0,1,1,2.3,1.3,61.894,61.894,0,0,0-3.7,7.764,1.321,1.321,0,0,1-1.23.839Z" transform="translate(-100.656 -74.061)" fill="#3a312a"/>
      <path id="Path_55" data-name="Path 55" d="M167.171,102.685a2.485,2.485,0,0,1,2.5,2.5v1.281a21.2,21.2,0,0,1,9.026,3.2,3.117,3.117,0,0,1,1.747,2.795,3.207,3.207,0,0,1-3.261,3.2,3.368,3.368,0,0,1-1.747-.524,21.159,21.159,0,0,0-6-2.562v11.179c8.85,2.213,12.635,5.765,12.635,11.995,0,6.4-5.007,10.655-12.4,11.355v3.493a2.485,2.485,0,0,1-2.5,2.5,2.536,2.536,0,0,1-2.562-2.5V147a25.181,25.181,0,0,1-11.936-4.542,3.2,3.2,0,0,1-1.572-2.795,3.2,3.2,0,0,1,5.124-2.562,20.626,20.626,0,0,0,8.618,3.9V129.527c-8.5-2.213-12.461-5.415-12.461-11.995,0-6.231,4.949-10.539,12.228-11.121v-1.223A2.534,2.534,0,0,1,167.171,102.685Zm-2.329,19.855V112.234c-3.727.35-5.59,2.329-5.59,4.891C159.252,119.571,160.358,121.085,164.842,122.54Zm4.6,8.094v10.6c3.727-.408,5.765-2.271,5.765-5.066C175.206,133.6,173.925,132.031,169.441,130.634Z" transform="translate(-114.072 -75.381)" fill="#3a312a"/>
    </g>
  </g>
</svg>
